<mxfile host="app.diagrams.net" modified="2021-09-20T09:59:56.503Z" agent="5.0 (Macintosh; Intel Mac OS X 10_15_7) AppleWebKit/537.36 (KHTML, like Gecko) Chrome/93.0.4577.82 Safari/537.36 Edg/93.0.961.52" etag="ECoujR1vocw4YuO5ztZl" version="15.2.9" type="github">
  <diagram id="S0yBkWtFEYg7WK7l21JC" name="第 1 页">
    <mxGraphModel dx="1298" dy="866" grid="1" gridSize="10" guides="1" tooltips="1" connect="1" arrows="1" fold="1" page="1" pageScale="1" pageWidth="827" pageHeight="1169" math="0" shadow="0">
      <root>
        <mxCell id="0" />
        <mxCell id="1" parent="0" />
        <mxCell id="JYhUrRGiy8g6LYFBKJuk-7" value="" style="edgeStyle=orthogonalEdgeStyle;rounded=0;orthogonalLoop=1;jettySize=auto;html=1;strokeColor=#788AA3;fontColor=#46495D;" edge="1" parent="1" source="JYhUrRGiy8g6LYFBKJuk-1" target="JYhUrRGiy8g6LYFBKJuk-3">
          <mxGeometry relative="1" as="geometry" />
        </mxCell>
        <mxCell id="JYhUrRGiy8g6LYFBKJuk-1" value="开始" style="rounded=1;whiteSpace=wrap;html=1;fillColor=#B2C9AB;strokeColor=#788AA3;fontColor=#46495D;" vertex="1" parent="1">
          <mxGeometry x="320" y="230" width="100" height="30" as="geometry" />
        </mxCell>
        <mxCell id="JYhUrRGiy8g6LYFBKJuk-6" value="" style="edgeStyle=orthogonalEdgeStyle;rounded=0;orthogonalLoop=1;jettySize=auto;html=1;strokeColor=#788AA3;fontColor=#46495D;" edge="1" parent="1" source="JYhUrRGiy8g6LYFBKJuk-2" target="JYhUrRGiy8g6LYFBKJuk-3">
          <mxGeometry relative="1" as="geometry" />
        </mxCell>
        <mxCell id="JYhUrRGiy8g6LYFBKJuk-2" value="填充异步命令属性" style="rounded=0;whiteSpace=wrap;html=1;fillColor=#B2C9AB;strokeColor=#788AA3;fontColor=#46495D;" vertex="1" parent="1">
          <mxGeometry x="310" y="290" width="120" height="30" as="geometry" />
        </mxCell>
        <mxCell id="JYhUrRGiy8g6LYFBKJuk-5" style="edgeStyle=orthogonalEdgeStyle;rounded=0;orthogonalLoop=1;jettySize=auto;html=1;entryX=0.5;entryY=0;entryDx=0;entryDy=0;strokeColor=#788AA3;fontColor=#46495D;" edge="1" parent="1" source="JYhUrRGiy8g6LYFBKJuk-3" target="JYhUrRGiy8g6LYFBKJuk-4">
          <mxGeometry relative="1" as="geometry" />
        </mxCell>
        <mxCell id="JYhUrRGiy8g6LYFBKJuk-3" value="异步命令落库" style="rounded=0;whiteSpace=wrap;html=1;fillColor=#B2C9AB;strokeColor=#788AA3;fontColor=#46495D;" vertex="1" parent="1">
          <mxGeometry x="310" y="350" width="120" height="30" as="geometry" />
        </mxCell>
        <mxCell id="JYhUrRGiy8g6LYFBKJuk-11" value="" style="edgeStyle=orthogonalEdgeStyle;rounded=0;orthogonalLoop=1;jettySize=auto;html=1;strokeColor=#788AA3;fontColor=#46495D;" edge="1" parent="1" source="JYhUrRGiy8g6LYFBKJuk-4" target="JYhUrRGiy8g6LYFBKJuk-10">
          <mxGeometry relative="1" as="geometry" />
        </mxCell>
        <mxCell id="JYhUrRGiy8g6LYFBKJuk-18" value="Y" style="edgeLabel;html=1;align=center;verticalAlign=middle;resizable=0;points=[];fontColor=#46495D;" vertex="1" connectable="0" parent="JYhUrRGiy8g6LYFBKJuk-11">
          <mxGeometry x="-0.24" relative="1" as="geometry">
            <mxPoint as="offset" />
          </mxGeometry>
        </mxCell>
        <mxCell id="JYhUrRGiy8g6LYFBKJuk-15" value="" style="edgeStyle=orthogonalEdgeStyle;rounded=0;orthogonalLoop=1;jettySize=auto;html=1;strokeColor=#788AA3;fontColor=#46495D;" edge="1" parent="1" source="JYhUrRGiy8g6LYFBKJuk-4" target="JYhUrRGiy8g6LYFBKJuk-8">
          <mxGeometry relative="1" as="geometry" />
        </mxCell>
        <mxCell id="JYhUrRGiy8g6LYFBKJuk-17" value="N" style="edgeLabel;html=1;align=center;verticalAlign=middle;resizable=0;points=[];fontColor=#46495D;" vertex="1" connectable="0" parent="JYhUrRGiy8g6LYFBKJuk-15">
          <mxGeometry x="0.0105" y="1" relative="1" as="geometry">
            <mxPoint as="offset" />
          </mxGeometry>
        </mxCell>
        <mxCell id="JYhUrRGiy8g6LYFBKJuk-4" value="执行方式为SYN &lt;br&gt;&amp;amp;&amp;amp; 当前不在事务里" style="rhombus;whiteSpace=wrap;html=1;fillColor=#B2C9AB;strokeColor=#788AA3;fontColor=#46495D;" vertex="1" parent="1">
          <mxGeometry x="10" y="410" width="210" height="60" as="geometry" />
        </mxCell>
        <mxCell id="JYhUrRGiy8g6LYFBKJuk-14" value="" style="edgeStyle=orthogonalEdgeStyle;rounded=0;orthogonalLoop=1;jettySize=auto;html=1;strokeColor=#788AA3;fontColor=#46495D;" edge="1" parent="1" source="JYhUrRGiy8g6LYFBKJuk-8" target="JYhUrRGiy8g6LYFBKJuk-12">
          <mxGeometry relative="1" as="geometry" />
        </mxCell>
        <mxCell id="JYhUrRGiy8g6LYFBKJuk-20" value="Y" style="edgeLabel;html=1;align=center;verticalAlign=middle;resizable=0;points=[];fontColor=#46495D;" vertex="1" connectable="0" parent="JYhUrRGiy8g6LYFBKJuk-14">
          <mxGeometry x="-0.52" y="-2" relative="1" as="geometry">
            <mxPoint as="offset" />
          </mxGeometry>
        </mxCell>
        <mxCell id="JYhUrRGiy8g6LYFBKJuk-16" value="" style="edgeStyle=orthogonalEdgeStyle;rounded=0;orthogonalLoop=1;jettySize=auto;html=1;strokeColor=#788AA3;fontColor=#46495D;" edge="1" parent="1" source="JYhUrRGiy8g6LYFBKJuk-8" target="JYhUrRGiy8g6LYFBKJuk-9">
          <mxGeometry relative="1" as="geometry" />
        </mxCell>
        <mxCell id="JYhUrRGiy8g6LYFBKJuk-19" value="N" style="edgeLabel;html=1;align=center;verticalAlign=middle;resizable=0;points=[];fontColor=#46495D;" vertex="1" connectable="0" parent="JYhUrRGiy8g6LYFBKJuk-16">
          <mxGeometry x="0.0222" y="1" relative="1" as="geometry">
            <mxPoint x="1" as="offset" />
          </mxGeometry>
        </mxCell>
        <mxCell id="JYhUrRGiy8g6LYFBKJuk-8" value="SYNC ？" style="rhombus;whiteSpace=wrap;html=1;fillColor=#B2C9AB;strokeColor=#788AA3;fontColor=#46495D;" vertex="1" parent="1">
          <mxGeometry x="267.5" y="410" width="205" height="60" as="geometry" />
        </mxCell>
        <mxCell id="JYhUrRGiy8g6LYFBKJuk-21" value="" style="edgeStyle=orthogonalEdgeStyle;rounded=0;orthogonalLoop=1;jettySize=auto;html=1;strokeColor=#788AA3;fontColor=#46495D;" edge="1" parent="1" source="JYhUrRGiy8g6LYFBKJuk-9" target="JYhUrRGiy8g6LYFBKJuk-13">
          <mxGeometry relative="1" as="geometry" />
        </mxCell>
        <mxCell id="JYhUrRGiy8g6LYFBKJuk-26" style="edgeStyle=orthogonalEdgeStyle;rounded=0;orthogonalLoop=1;jettySize=auto;html=1;entryX=1;entryY=0.75;entryDx=0;entryDy=0;strokeColor=#788AA3;fontColor=#46495D;" edge="1" parent="1" source="JYhUrRGiy8g6LYFBKJuk-9" target="JYhUrRGiy8g6LYFBKJuk-22">
          <mxGeometry relative="1" as="geometry">
            <Array as="points">
              <mxPoint x="790" y="440" />
              <mxPoint x="790" y="643" />
            </Array>
          </mxGeometry>
        </mxCell>
        <mxCell id="JYhUrRGiy8g6LYFBKJuk-27" value="设为DEFAULT类型" style="edgeLabel;html=1;align=center;verticalAlign=middle;resizable=0;points=[];fontColor=#46495D;" vertex="1" connectable="0" parent="JYhUrRGiy8g6LYFBKJuk-26">
          <mxGeometry x="-0.4939" y="-2" relative="1" as="geometry">
            <mxPoint as="offset" />
          </mxGeometry>
        </mxCell>
        <mxCell id="JYhUrRGiy8g6LYFBKJuk-9" value="ASYNC ？" style="rhombus;whiteSpace=wrap;html=1;fillColor=#B2C9AB;strokeColor=#788AA3;fontColor=#46495D;" vertex="1" parent="1">
          <mxGeometry x="540" y="410" width="210" height="60" as="geometry" />
        </mxCell>
        <mxCell id="JYhUrRGiy8g6LYFBKJuk-23" style="edgeStyle=orthogonalEdgeStyle;rounded=0;orthogonalLoop=1;jettySize=auto;html=1;entryX=0;entryY=0.5;entryDx=0;entryDy=0;exitX=0.5;exitY=1;exitDx=0;exitDy=0;strokeColor=#788AA3;fontColor=#46495D;" edge="1" parent="1" source="JYhUrRGiy8g6LYFBKJuk-10" target="JYhUrRGiy8g6LYFBKJuk-22">
          <mxGeometry relative="1" as="geometry" />
        </mxCell>
        <mxCell id="JYhUrRGiy8g6LYFBKJuk-10" value="当前线程同步执行" style="rounded=0;whiteSpace=wrap;html=1;fillColor=#B2C9AB;strokeColor=#788AA3;fontColor=#46495D;" vertex="1" parent="1">
          <mxGeometry x="55" y="520" width="120" height="30" as="geometry" />
        </mxCell>
        <mxCell id="JYhUrRGiy8g6LYFBKJuk-24" value="" style="edgeStyle=orthogonalEdgeStyle;rounded=0;orthogonalLoop=1;jettySize=auto;html=1;strokeColor=#788AA3;fontColor=#46495D;entryX=0.5;entryY=0;entryDx=0;entryDy=0;" edge="1" parent="1" source="JYhUrRGiy8g6LYFBKJuk-12" target="JYhUrRGiy8g6LYFBKJuk-29">
          <mxGeometry relative="1" as="geometry" />
        </mxCell>
        <mxCell id="JYhUrRGiy8g6LYFBKJuk-12" value="提交到对应线程池，尝试执行" style="rounded=0;whiteSpace=wrap;html=1;fillColor=#B2C9AB;strokeColor=#788AA3;fontColor=#46495D;" vertex="1" parent="1">
          <mxGeometry x="310" y="520" width="120" height="30" as="geometry" />
        </mxCell>
        <mxCell id="JYhUrRGiy8g6LYFBKJuk-25" style="edgeStyle=orthogonalEdgeStyle;rounded=0;orthogonalLoop=1;jettySize=auto;html=1;entryX=1;entryY=0.75;entryDx=0;entryDy=0;exitX=0.5;exitY=1;exitDx=0;exitDy=0;strokeColor=#788AA3;fontColor=#46495D;" edge="1" parent="1" source="JYhUrRGiy8g6LYFBKJuk-13" target="JYhUrRGiy8g6LYFBKJuk-22">
          <mxGeometry relative="1" as="geometry" />
        </mxCell>
        <mxCell id="JYhUrRGiy8g6LYFBKJuk-13" value="提交到对应线程池，尝试执行" style="rounded=0;whiteSpace=wrap;html=1;fillColor=#B2C9AB;strokeColor=#788AA3;fontColor=#46495D;" vertex="1" parent="1">
          <mxGeometry x="585" y="520" width="120" height="30" as="geometry" />
        </mxCell>
        <mxCell id="JYhUrRGiy8g6LYFBKJuk-22" value="结束，调度任务进行后续管理" style="rounded=1;whiteSpace=wrap;html=1;fillColor=#B2C9AB;strokeColor=#788AA3;fontColor=#46495D;" vertex="1" parent="1">
          <mxGeometry x="320" y="620" width="100" height="30" as="geometry" />
        </mxCell>
        <mxCell id="JYhUrRGiy8g6LYFBKJuk-28" value="防止同步执行对当前事务造成影响" style="text;html=1;strokeColor=none;fillColor=none;align=left;verticalAlign=middle;whiteSpace=wrap;rounded=0;sketch=0;fontColor=#46495D;" vertex="1" parent="1">
          <mxGeometry x="175" y="460" width="105" height="20" as="geometry" />
        </mxCell>
        <mxCell id="JYhUrRGiy8g6LYFBKJuk-30" value="" style="edgeStyle=orthogonalEdgeStyle;curved=0;rounded=1;sketch=0;orthogonalLoop=1;jettySize=auto;html=1;fontColor=#46495D;strokeColor=#788AA3;fillColor=#B2C9AB;" edge="1" parent="1" source="JYhUrRGiy8g6LYFBKJuk-29" target="JYhUrRGiy8g6LYFBKJuk-22">
          <mxGeometry relative="1" as="geometry" />
        </mxCell>
        <mxCell id="JYhUrRGiy8g6LYFBKJuk-29" value="同步等待一段时间" style="rounded=0;whiteSpace=wrap;html=1;fillColor=#B2C9AB;strokeColor=#788AA3;fontColor=#46495D;" vertex="1" parent="1">
          <mxGeometry x="310" y="575" width="120" height="20" as="geometry" />
        </mxCell>
      </root>
    </mxGraphModel>
  </diagram>
</mxfile>
